<?xml version="1.0" encoding="utf-8"?>
<!-- Generator: Adobe Illustrator 27.4.1, SVG Export Plug-In . SVG Version: 6.00 Build 0)  -->
<svg version="1.1" id="Layer_1" xmlns="http://www.w3.org/2000/svg" xmlns:xlink="http://www.w3.org/1999/xlink" x="0px" y="0px"
	 viewBox="0 0 945.8 205.4" style="enable-background:new 0 0 945.8 205.4;" xml:space="preserve">
<style type="text/css">
	.st0{fill:none;}
	.st1{fill:url(#SVGID_00000091735976410553684550000016774314466084842639_);}
	.st2{fill:url(#SVGID_00000132790974651580364160000004966251316911611785_);}
	.st3{opacity:0.15;fill:url(#SVGID_00000039099187664532996210000014473554130472492186_);}
	.st4{opacity:0.15;fill:#092537;}
</style>
<g>
	<g>
		<path d="M162.2,83.3c0.8,0.2,1.5,0.4,2.3,0.6c11,2.1,18.8,10.6,19.4,21.8c0.3,5.8,0.5,11.7-0.1,17.4c-1.4,12.8-10.7,21-23.6,21.4
			c-5.7,0.1-11.5,0.3-17.2-0.1c-11.1-0.8-19.9-9.1-21.3-20.1c-1-7.4-1.3-14.9,0.3-22.3c2.2-9.8,9.5-16.5,19.5-18.1
			c0.4-0.1,0.8-0.3,1.3-0.4C149.2,83.3,155.7,83.3,162.2,83.3z M152.6,133.1C152.6,133.1,152.6,133.1,152.6,133.1
			c2.8-0.1,5.7,0.1,8.5-0.1c6.1-0.3,11.1-4.6,11.6-10.7c0.5-5.3,0.5-10.8,0.1-16.1c-0.5-6.6-4.5-10.8-11.1-11.3
			c-6-0.5-12.1-0.5-18.2,0c-6.6,0.5-10.8,5.1-11.2,11.7c-0.3,4.6-0.3,9.3,0,13.9c0.6,8.2,5.6,12.5,13.9,12.6
			C148.4,133.1,150.5,133.1,152.6,133.1z"/>
		<path d="M11.8,84.2c4.1,0,7.8-0.1,11.4,0.1c0.7,0,1.5,1.1,1.9,1.9c6,12.4,11.9,24.9,17.9,37.4c0.3,0.6,0.7,1.3,1.2,2.3
			c2.1-4.5,4.1-8.6,6.1-12.7c4.2-8.8,8.5-17.6,12.6-26.4c0.8-1.8,1.8-2.5,3.8-2.4c3.1,0.2,6.3,0,9.9,0c-2,4.1-3.8,7.9-5.6,11.6
			c-7.1,14.9-14.3,29.7-21.4,44.6c-1.1,2.3-2.7,3.7-5.2,3.9c-2.6,0.2-4.3-1.3-5.4-3.5c-3.8-7.8-7.6-15.6-11.3-23.5
			C22.7,107.3,17.9,97.1,13,87C12.7,86.2,12.4,85.5,11.8,84.2z"/>
		<path d="M355.5,84.1c8.6,0,17.1,0,25.7,0c2.8,0,2.9,0.1,2.9,2.8c0,2.2-0.1,4.3,0,6.5c0.1,1.6-0.6,2.1-2.1,2.1
			c-6.1-0.1-12.1,0-18.2,0c-2.6,0-2.6,0-2.6,2.6c0,14.2,0,28.5,0,42.7c0,2.8,0,2.8-2.8,2.8c-1.8,0-3.6,0-5.5,0c-2.7,0-2.7,0-2.7-2.8
			c0-14.1,0-28.2,0-42.3c0-2.9,0-2.9-2.9-2.9c-6,0-12-0.1-18,0c-1.8,0-2.4-0.6-2.3-2.3c0.1-2.2,0.2-4.5,0-6.7
			c-0.2-2,0.7-2.4,2.5-2.4c5.9,0.1,11.7,0,17.6,0C349.8,84.1,352.6,84.1,355.5,84.1z"/>
		<path d="M236.3,112c0-8.5,0.1-17,0-25.5c0-1.8,0.6-2.4,2.3-2.4c2.2,0.1,4.3,0.1,6.5,0c1.8-0.1,2.6,0.5,2.6,2.5
			c-0.1,14.2,0,28.5,0,42.7c0,2.9,0,2.9,2.9,2.9c12.3,0,24.5,0.1,36.8,0c2.1,0,2.7,0.7,2.6,2.6c-0.2,2.3-0.1,4.6,0,6.9
			c0,1.3-0.4,1.8-1.7,1.8c-15.4,0-30.8,0-46.1,0c-3.4,0-5.7-2.5-5.7-6C236.3,129,236.3,120.5,236.3,112z"/>
		<path class="st0" d="M152.6,133.1c-2.1,0-4.2,0-6.3,0c-8.3,0-13.3-4.4-13.9-12.6c-0.3-4.6-0.3-9.3,0-13.9
			c0.4-6.6,4.5-11.2,11.2-11.7c6-0.5,12.1-0.5,18.2,0c6.6,0.5,10.6,4.7,11.1,11.3c0.4,5.3,0.4,10.8-0.1,16.1
			c-0.6,6.1-5.5,10.3-11.6,10.7C158.3,133.2,155.4,133.1,152.6,133.1C152.6,133.1,152.6,133.1,152.6,133.1z"/>
	</g>
	<g>
		<path d="M807.7,110.7c-3.7,6.3-7.5,12.6-11.2,19c-2.2,3.7-4.3,7.5-6.6,11.1c-3,4.8-8.3,4.7-11.2-0.1c-5.6-9.4-11.2-18.9-16.8-28.3
			c-0.4-0.7-0.9-1.4-1.8-2c0,0.7,0,1.4,0,2.1c0,9.5,0,19,0,28.5c0,2-0.6,2.6-2.5,2.5c-2.4-0.2-4.7-0.1-7.1,0
			c-1.8,0.1-2.3-0.5-2.3-2.3c0.1-15.4,0-30.8,0-46.1c0-2-0.1-3.9,0-5.9c0.1-2.8,1.8-5,4.3-5.7c2.8-0.7,5.4,0.4,6.9,2.9
			c8,13.2,15.9,26.4,23.9,39.7c0.2,0.3,0.4,0.7,0.8,1.3c0.6-0.9,1.1-1.6,1.6-2.3c7.5-12.5,15-25.1,22.5-37.7c1.6-2.7,3.6-4.3,6.9-4
			c2.9,0.3,5.2,2.6,5.2,5.5c0,17.5,0,34.9,0.1,52.4c0,1.6-0.5,2.3-2.2,2.2c-2.6-0.1-5.1-0.1-7.7,0c-1.8,0.1-2.3-0.5-2.3-2.3
			c0.1-9.4,0-18.8,0-28.1c0-0.7,0-1.4,0-2.2C808,110.8,807.9,110.8,807.7,110.7z"/>
		<path d="M933.9,143.3c-1,0.1-1.6,0.1-2.3,0.1c-12.5,0-25.1,0-37.6,0c-8.1,0-14.1-4.3-15.8-11.2c-0.2-0.8-0.3-1.7-0.3-2.6
			c0-13.1,0-26.2,0-39.3c0-3.8,2.3-6.1,6.2-6.1c15.9,0,31.7,0,47.6,0c1.9,0,2.5,0.6,2.4,2.4c-0.1,2.2-0.1,4.5,0,6.7
			c0.1,1.8-0.6,2.3-2.4,2.3c-13-0.1-26,0-39.1,0c-2.9,0-2.9,0-2.9,2.9c0,9.4,0,18.9,0,28.3c0,4.3,1,5.3,5.4,5.3
			c12.1,0.1,24.1,0.1,36.2,0.1c2.7,0,2.7,0,2.7,2.7C933.9,137.7,933.9,140.4,933.9,143.3z"/>
		<path d="M595.4,84.2c9.3,0,18.6,0,27.9,0c1.9,0,2.7,0.6,2.6,2.5c-0.1,2.2-0.1,4.3,0,6.5c0.1,1.9-0.7,2.4-2.5,2.4
			c-6.5-0.1-13.1,0-19.6-0.1c-1.9,0-2.6,0.5-2.6,2.5c0.1,14.2,0,28.3,0.1,42.5c0,2.2-0.7,2.9-2.7,2.8c-2.4-0.1-4.7-0.2-7.1-0.1
			c-1.8,0.1-2.1-0.7-2.1-2.3c0.1-13.9,0-27.8,0-41.7c0-0.5,0-0.9,0-1.4c0.2-1.7-0.5-2.4-2.3-2.3c-6.4,0.1-12.8,0-19.2,0
			c-3.1,0-3.1,0-3.1-3.1c0-1.8,0-3.6,0-5.5c0-2.7,0-2.7,2.7-2.7C576.8,84.2,586.1,84.2,595.4,84.2z"/>
		<path d="M690.4,113.7c0,9.1,0,18.2,0,27.3c0,1.7-0.3,2.6-2.3,2.4c-2.5-0.2-5-0.1-7.5,0c-1.6,0.1-2.1-0.6-2.1-2.1
			c0.1-4.9,0-9.8,0-14.8c0-13.2,0-26.4,0-39.7c0-2.7,0-2.7,2.7-2.8c2.3,0,4.6,0.1,6.9,0c1.8-0.1,2.3,0.5,2.3,2.3
			C690.3,95.5,690.4,104.6,690.4,113.7C690.4,113.7,690.4,113.7,690.4,113.7z"/>
		<path d="M911.1,119.5c-5.1,0-10.3-0.1-15.4,0c-2,0.1-2.5-0.7-2.4-2.5c0.1-2.3,0.1-4.6,0-6.9c0-1.4,0.4-2.1,1.9-2.1
			c10.7,0,21.3,0,32,0c1.5,0,2,0.5,2,2c-0.1,2.4-0.1,4.9,0,7.3c0.1,1.6-0.7,2.1-2.2,2.1C921.8,119.4,916.4,119.5,911.1,119.5z"/>
	</g>
	<g>
		<g>
			<defs>
				<rect id="SVGID_1_" x="351.7" y="-20.7" width="246.8" height="246.8"/>
			</defs>
			<clipPath id="SVGID_00000145742699331395396050000007391236940251084202_">
				<use xlink:href="#SVGID_1_"  style="overflow:visible;"/>
			</clipPath>
		</g>
		<g>
			<g>
				
					<linearGradient id="SVGID_00000136384350675431037690000011427510633742599343_" gradientUnits="userSpaceOnUse" x1="480.834" y1="45.3811" x2="480.834" y2="210.9636">
					<stop  offset="0" style="stop-color:#20BEC6"/>
					<stop  offset="0.505" style="stop-color:#54B6A5"/>
					<stop  offset="1" style="stop-color:#75C9B3"/>
				</linearGradient>
				<path style="fill:url(#SVGID_00000136384350675431037690000011427510633742599343_);" d="M558.2,51.5l-83.4,144.4
					c-0.6,1-2.1,1-2.7,0L403.4,75.5c-0.6-1,0.2-2.3,1.3-2.3H444c0.6,0,1.1,0.3,1.3,0.8l0.9,1.5l6,10.5c0.6,1-0.2,2.3-1.3,2.3h-19.9
					c-1.2,0-1.9,1.3-1.3,2.3l42.6,74.8c0.6,1,2.1,1,2.7,0l11.2-19.5l17.6-30.4l1.2-2.1L528.3,73l13.3-23c0.3-0.5,0.8-0.8,1.3-0.8
					h13.9C558.1,49.2,558.8,50.5,558.2,51.5z"/>
				
					<linearGradient id="SVGID_00000177445842772860703460000009971363258555004595_" gradientUnits="userSpaceOnUse" x1="460.8999" y1="45.499" x2="460.8999" y2="205.9917">
					<stop  offset="0" style="stop-color:#20BEC6"/>
					<stop  offset="0.505" style="stop-color:#54B6A5"/>
					<stop  offset="1" style="stop-color:#75C9B3"/>
				</linearGradient>
				<path style="fill:url(#SVGID_00000177445842772860703460000009971363258555004595_);" d="M522.6,64.4h-53.5c-0.9,0-1.5,1-1,1.8
					l26.5,46.7c0.2,0.4,0.2,0.8,0,1.2l-2.2,3.8l-5.2,9c-0.5,0.8-1.6,0.8-2.1,0l-9.3-16.4l-14.6-25.7l-2.6-4.5l-1.2-2.1L450,65
					c-0.2-0.4-0.6-0.6-1-0.6h-50.3c-0.4,0-0.8-0.2-1-0.6L390.7,51c-0.4-0.8,0.1-1.7,1-1.7H530c0.9,0,1.5,1,1,1.8l-7.4,12.8
					C523.5,64.2,523.1,64.4,522.6,64.4z"/>
				
					<linearGradient id="SVGID_00000150815064021315369470000017559216524922808753_" gradientUnits="userSpaceOnUse" x1="459.5522" y1="64.3792" x2="459.5522" y2="69.5519">
					<stop  offset="0" style="stop-color:#20BEC6"/>
					<stop  offset="0.505" style="stop-color:#54B6A5"/>
					<stop  offset="1" style="stop-color:#75C9B3"/>
				</linearGradient>
				<path style="opacity:0.15;fill:url(#SVGID_00000150815064021315369470000017559216524922808753_);" d="M469.2,64.4L469.2,64.4
					C469.2,64.4,469.2,64.4,469.2,64.4l-20.1,0c0.4,0,20.5,5.1,21,5.2l-1.9-3.4C467.7,65.4,468.3,64.4,469.2,64.4z"/>
			</g>
			<path class="st4" d="M418.7,73.2l10.8,17.3c0,0,0-0.9,0-0.9c0-0.1,0.1-0.3,0.2-0.4c0.1-0.1,0.7-0.8,1-0.8c0.1,0,0.4,0,0.4,0
				c0,0,3.5,0,3.6,0h0L418.7,73.2z"/>
			<path class="st4" d="M477.5,160.9l-2.6,4.5c-0.5,0.7-1.1,0.8-1.6,0.8c-0.7-0.1-1.2-0.9-1.2-0.9l9.8,18.5L477.5,160.9z"/>
		</g>
	</g>
</g>
</svg>
